<svg width="16" height="16" viewBox="0 0 16 16" fill="none" xmlns="http://www.w3.org/2000/svg">
<g clip-path="url(#clip0_4452_3746)">
<path d="M0.666504 6.00004V5.25004C0.44604 5.25004 0.236742 5.34704 0.0942389 5.51526C-0.0482637 5.68348 -0.109536 5.90588 -0.0732915 6.12334L0.666504 6.00004ZM1.81415 12.8859L2.55394 12.7626H2.55394L1.81415 12.8859ZM14.1855 12.8859L14.9253 13.0092L14.9253 13.0092L14.1855 12.8859ZM15.3332 6.00004L16.073 6.12334C16.1092 5.90588 16.0479 5.68348 15.9054 5.51526C15.7629 5.34704 15.5536 5.25004 15.3332 5.25004V6.00004ZM2.58317 5.66671C2.58317 6.08092 2.91896 6.41671 3.33317 6.41671C3.74738 6.41671 4.08317 6.08092 4.08317 5.66671H2.58317ZM11.9165 5.66671C11.9165 6.08092 12.2523 6.41671 12.6665 6.41671C13.0807 6.41671 13.4165 6.08092 13.4165 5.66671H11.9165ZM-0.0732915 6.12334L1.07435 13.0092L2.55394 12.7626L1.4063 5.87674L-0.0732915 6.12334ZM3.12934 14.75H12.8703V13.25H3.12934V14.75ZM14.9253 13.0092L16.073 6.12334L14.5934 5.87674L13.4457 12.7626L14.9253 13.0092ZM15.3332 5.25004H0.666504V6.75004H15.3332V5.25004ZM12.8703 14.75C13.8887 14.75 14.7579 14.0138 14.9253 13.0092L13.4457 12.7626C13.3989 13.0439 13.1555 13.25 12.8703 13.25V14.75ZM1.07435 13.0092C1.24178 14.0138 2.11093 14.75 3.12934 14.75V13.25C2.84418 13.25 2.60082 13.0439 2.55394 12.7626L1.07435 13.0092ZM1.33317 10.75H14.6665V9.25004H1.33317V10.75ZM4.08317 5.66671V2.66671H2.58317V5.66671H4.08317ZM4.6665 2.08337H11.3332V0.583374H4.6665V2.08337ZM11.9165 2.66671V5.66671H13.4165V2.66671H11.9165ZM11.3332 2.08337C11.6553 2.08337 11.9165 2.34454 11.9165 2.66671H13.4165C13.4165 1.51611 12.4838 0.583374 11.3332 0.583374V2.08337ZM4.08317 2.66671C4.08317 2.34454 4.34434 2.08337 4.6665 2.08337V0.583374C3.51591 0.583374 2.58317 1.51611 2.58317 2.66671H4.08317ZM4.58576 6.06233L5.25243 14.0623L6.74725 13.9378L6.08058 5.93776L4.58576 6.06233ZM9.91909 5.93776L9.25243 13.9378L10.7472 14.0623L11.4139 6.06233L9.91909 5.93776Z" fill="white"/>
</g>
<defs>
<clipPath id="clip0_4452_3746">
<rect width="16" height="16" fill="white"/>
</clipPath>
</defs>
</svg>
