<svg width="16" height="16" viewBox="0 0 16 16" fill="none" xmlns="http://www.w3.org/2000/svg">
<g clip-path="url(#clip0_4453_5155)">
<path d="M0.666656 6.00004V5.25004C0.446192 5.25004 0.236894 5.34704 0.0943915 5.51526C-0.0481111 5.68348 -0.109383 5.90588 -0.073139 6.12334L0.666656 6.00004ZM1.8143 12.8859L2.5541 12.7626H2.5541L1.8143 12.8859ZM14.1857 12.8859L14.9255 13.0092L14.9255 13.0092L14.1857 12.8859ZM15.3333 6.00004L16.0731 6.12334C16.1094 5.90588 16.0481 5.68348 15.9056 5.51526C15.7631 5.34704 15.5538 5.25004 15.3333 5.25004V6.00004ZM2.58332 5.66671C2.58332 6.08092 2.91911 6.41671 3.33332 6.41671C3.74754 6.41671 4.08332 6.08092 4.08332 5.66671H2.58332ZM11.9167 5.66671C11.9167 6.08092 12.2524 6.41671 12.6667 6.41671C13.0809 6.41671 13.4167 6.08092 13.4167 5.66671H11.9167ZM-0.073139 6.12334L1.07451 13.0092L2.5541 12.7626L1.40645 5.87674L-0.073139 6.12334ZM3.12949 14.75H12.8705V13.25H3.12949V14.75ZM14.9255 13.0092L16.0731 6.12334L14.5935 5.87674L13.4459 12.7626L14.9255 13.0092ZM15.3333 5.25004H0.666656V6.75004H15.3333V5.25004ZM12.8705 14.75C13.8889 14.75 14.758 14.0138 14.9255 13.0092L13.4459 12.7626C13.399 13.0439 13.1556 13.25 12.8705 13.25V14.75ZM1.07451 13.0092C1.24193 14.0138 2.11108 14.75 3.12949 14.75V13.25C2.84434 13.25 2.60098 13.0439 2.5541 12.7626L1.07451 13.0092ZM1.33332 10.75H14.6667V9.25004H1.33332V10.75ZM4.08332 5.66671V2.66671H2.58332V5.66671H4.08332ZM4.66666 2.08337H11.3333V0.583374H4.66666V2.08337ZM11.9167 2.66671V5.66671H13.4167V2.66671H11.9167ZM11.3333 2.08337C11.6555 2.08337 11.9167 2.34454 11.9167 2.66671H13.4167C13.4167 1.51611 12.4839 0.583374 11.3333 0.583374V2.08337ZM4.08332 2.66671C4.08332 2.34454 4.34449 2.08337 4.66666 2.08337V0.583374C3.51606 0.583374 2.58332 1.51611 2.58332 2.66671H4.08332ZM4.58591 6.06233L5.25258 14.0623L6.7474 13.9378L6.08073 5.93776L4.58591 6.06233ZM9.91925 5.93776L9.25258 13.9378L10.7474 14.0623L11.4141 6.06233L9.91925 5.93776Z" fill="#333333"/>
</g>
<defs>
<clipPath id="clip0_4453_5155">
<rect width="16" height="16" fill="white"/>
</clipPath>
</defs>
</svg>
