<svg xmlns="http://www.w3.org/2000/svg" width="130" height="52" viewBox="0 0 130 52">
    <g fill="#F60">
        <polyline points="20.878,24.134 20.878,11.028 15.252,24.134 12.136,24.134 6.608,11.028 6.608,24.134 0.798,24.134 0.798,1.431 8.573,1.431 13.915,14.251 19.504,1.431 26.684,1.431 26.684,24.134 20.878,24.134"/>
        <path d="M31.157 24.134V1.431h4.965c.435 0 .869.441.869.908v21.796h-5.834"/>
        <path d="M53.111 11.062h7.377c.582 0 .915.478.915 1.033v11.733c-2.079.461-5.318.746-7.733.746-8.467 0-12.928-4.031-12.928-11.825C40.74 5.808 45.201 1 52.643 1c3.276 0 6.151.871 7.996 2.118l-2.284 3.908c-1.595-.718-3.756-1.218-5.281-1.218-4.273 0-6.274 2.837-6.274 6.942 0 4.392 2.312 7.106 6.585 7.106.787 0 1.759-.029 2.534-.152V15.7H53.11v-4.638"/>
        <path d="M78.652 24.134l-2.694-6.251c-.549-1.271-.927-1.898-2.103-1.898h-2.354v8.15h-5.712V2.339c0-.467.517-.908.894-.908h8.045c4.383 0 8.139.908 8.139 6.563 0 2.534-1.407 5.123-4.031 5.65 1.308.441 2.624 2.124 3.342 3.938l2.596 6.552h-6.122zM74.351 5.808h-2.85v5.691h2.85c1.71 0 3.051-.91 3.051-3.063-.001-2.192-1.341-2.628-3.051-2.628"/>
        <path d="M97.383 24.575c-7.426 0-11.366-5.255-11.366-11.825C86.017 6.244 89.957 1 97.383 1c6.967 0 10.903 5.244 10.903 11.75 0 6.571-3.937 11.825-10.903 11.825zm0-18.767c-3.063 0-5.236 2.185-5.236 6.942 0 4.832 2.173 7.012 5.236 7.012 2.628 0 4.781-2.179 4.781-7.012 0-4.757-2.153-6.942-4.781-6.942"/>
        <path d="M119.467 24.575c-3.838 0-7.401-1.378-8.992-2.468l2.587-4.588c1.439.873 4.244 2.214 6.843 2.214 1.46 0 3.313-.283 3.313-1.907 0-1.529-2.071-1.997-4.789-2.776-3.272-.939-7.081-2.239-7.081-6.649 0-4.752 4.211-7.401 9.705-7.401 3.625 0 6.442 1.281 7.869 2.649l-3.149 3.59c-1.562-.931-3.153-1.656-4.937-1.656-2.145 0-3.366.818-3.366 2.005 0 1.177 1.562 1.784 3.518 2.37 3.477 1.07 8.213 2.169 8.213 6.712.001 4.684-3.747 7.905-9.734 7.905"/>
    </g>
    <path d="M8.857 35.138c4.814 0 7.252 3.817 7.252 7.931S13.671 51 8.857 51s-7.252-3.817-7.252-7.931 2.438-7.931 7.252-7.931zm0 14.166c3.689 0 5.238-3.181 5.238-6.235s-1.548-6.234-5.238-6.234c-3.69 0-5.238 3.181-5.238 6.234s1.548 6.235 5.238 6.235z"/>
    <path d="M18.28 39.676h1.696v1.739h.042c.764-1.357 1.993-1.993 3.563-1.993 2.884 0 3.774 1.654 3.774 4.008v7.21h-1.802v-7.422c0-1.336-.848-2.206-2.227-2.206-2.183 0-3.244 1.463-3.244 3.435v6.192H18.28V39.676z"/>
    <path d="M29.954 35.499h1.802V50.64h-1.802V35.499z"/>
    <path d="M36.189 37.704h-1.802v-2.205h1.802v2.205zm-1.803 1.972h1.802v10.963h-1.802V39.676z"/>
    <path d="M38.768 39.676h1.697v1.739h.042c.764-1.357 1.993-1.993 3.562-1.993 2.884 0 3.775 1.654 3.775 4.008v7.21h-1.802v-7.422c0-1.336-.848-2.206-2.227-2.206-2.184 0-3.244 1.463-3.244 3.435v6.192h-1.803V39.676z"/>
    <path d="M59.743 47.162c-.487 2.418-2.226 3.732-4.686 3.732-3.498 0-5.153-2.418-5.259-5.768 0-3.287 2.163-5.704 5.154-5.704 3.88 0 5.068 3.626 4.962 6.277h-8.207c-.064 1.908 1.018 3.605 3.414 3.605 1.485 0 2.524-.721 2.842-2.142h1.78zm-1.739-3.054c-.085-1.718-1.378-3.096-3.159-3.096-1.888 0-3.012 1.421-3.139 3.096h6.298z"/>
    <rect fill="none" width="130" height="52"/>
</svg>
